<svg width="45" height="45" viewBox="0 0 45 45" fill="none" xmlns="http://www.w3.org/2000/svg">
<path d="M14.3009 34.7992L18.4012 30.6989H22.5016L25.2898 27.9106C28.1398 28.9036 31.2425 28.8996 34.0901 27.8995C36.9376 26.8993 39.3613 24.9621 40.9645 22.405C42.5676 19.8479 43.2553 16.8223 42.915 13.8235C42.5746 10.8246 41.2264 8.03008 39.091 5.89729C36.9556 3.76449 34.1594 2.41975 31.1601 2.08315C28.1609 1.74656 25.1362 2.43805 22.5812 4.04445C20.0261 5.65084 18.092 8.077 17.0954 10.9258C16.0988 13.7747 16.0988 16.8774 17.0953 19.7263L2 34.7992V43H10.2006L14.3009 38.8996V34.7992Z" stroke="black" stroke-opacity="0.3" stroke-width="4" stroke-linecap="round" stroke-linejoin="round"/>
<path d="M32.7523 14.2972C33.8846 14.2972 34.8025 13.3793 34.8025 12.247C34.8025 11.1147 33.8846 10.1968 32.7523 10.1968C31.62 10.1968 30.7021 11.1147 30.7021 12.247C30.7021 13.3793 31.62 14.2972 32.7523 14.2972Z" stroke="black" stroke-opacity="0.3" stroke-width="4" stroke-linecap="round" stroke-linejoin="round"/>
</svg>
