<svg width="41" height="41" viewBox="0 0 41 41" fill="none" xmlns="http://www.w3.org/2000/svg">
<g opacity="0.3">
<path fill-rule="evenodd" clip-rule="evenodd" d="M27.9544 14.9086C27.9544 16.8857 27.169 18.7818 25.771 20.1798C24.373 21.5778 22.4769 22.3632 20.4998 22.3632C18.5228 22.3632 16.6267 21.5778 15.2287 20.1798C13.8307 18.7818 13.0453 16.8857 13.0453 14.9086C13.0453 12.9316 13.8307 11.0355 15.2287 9.63749C16.6267 8.23949 18.5228 7.4541 20.4998 7.4541C22.4769 7.4541 24.373 8.23949 25.771 9.63749C27.169 11.0355 27.9544 12.9316 27.9544 14.9086ZM24.2271 14.9086C24.2271 15.8972 23.8344 16.8452 23.1354 17.5442C22.4364 18.2432 21.4884 18.6359 20.4998 18.6359C19.5113 18.6359 18.5633 18.2432 17.8643 17.5442C17.1653 16.8452 16.7726 15.8972 16.7726 14.9086C16.7726 13.9201 17.1653 12.9721 17.8643 12.2731C18.5633 11.5741 19.5113 11.1814 20.4998 11.1814C21.4884 11.1814 22.4364 11.5741 23.1354 12.2731C23.8344 12.9721 24.2271 13.9201 24.2271 14.9086Z" fill="black"/>
<path fill-rule="evenodd" clip-rule="evenodd" d="M20.5 0C9.17841 0 0 9.17841 0 20.5C0 31.8216 9.17841 41 20.5 41C31.8216 41 41 31.8216 41 20.5C41 9.17841 31.8216 0 20.5 0ZM3.72727 20.5C3.72727 24.395 5.05605 27.9806 7.28309 30.8283C8.8475 28.7748 10.8653 27.1106 13.179 25.9655C15.4926 24.8205 18.0396 24.2256 20.6211 24.2273C23.1694 24.2243 25.6848 24.8033 27.9753 25.9202C30.2658 27.037 32.271 28.6622 33.838 30.6717C35.4528 28.5539 36.54 26.082 37.0098 23.4606C37.4795 20.8391 37.3183 18.1435 36.5394 15.5967C35.7605 13.05 34.3864 10.7253 32.5307 8.81507C30.675 6.90482 28.3911 5.46392 25.868 4.61158C23.3449 3.75925 20.6551 3.51998 18.0211 3.91359C15.3872 4.30719 12.8848 5.32234 10.7211 6.87505C8.55735 8.42777 6.79447 10.4734 5.57829 12.8427C4.36212 15.212 3.72761 17.8368 3.72727 20.5ZM20.5 37.2727C16.6496 37.279 12.9153 35.9543 9.92945 33.5231C11.1311 31.8022 12.7309 30.3972 14.5924 29.4277C16.454 28.4581 18.5222 27.9527 20.6211 27.9545C22.6938 27.9527 24.737 28.4455 26.581 29.392C28.425 30.3385 30.0165 31.7113 31.2234 33.3964C28.2145 35.9067 24.4186 37.2789 20.5 37.2727Z" fill="black"/>
</g>
</svg>
